<svg viewBox="0 0 936.86 936.86" xmlns="http://www.w3.org/2000/svg" width="2500" height="2500"><path d="M479.11 936.74c-3.55.08-7.11.12-10.68.12C209.72 936.86 0 727.14 0 468.43 0 280.08 111.16 117.7 271.45 43.31c21.94 40.07 49.93 72.72 91.53 110.12 21.25 19.1 47.21 38.95 75.34 62.67 45.67 38.51 71.7 69.35 86.24 95.59-17.1-3.2-35.76-4.93-56.13-4.93-27.71 0-52.3 3.11-74.11 8.69v-26.46H237.43v91.11c0 9.44-1.21 41.78 6.45 80.5-5.31 15.91-9.07 31.74-11.7 46.78-4.12 23.57-5.42 45.18-5.42 62.05 0 79.11 22.23 164.89 123.56 253.78 101.17 88.75 107.98 87.3 128.79 113.53z"/><path d="M665.32 893.58s-.01.02-.02.02c-56.62 26.27-119.36 41.55-185.5 43.12-.23.01-.46.02-.69.02-20.81-26.23-27.62-24.78-128.79-113.53-101.33-88.89-123.56-174.67-123.56-253.78 0-16.87 1.3-38.48 5.42-62.05 5.61 18.5 21.91 55.78 66.92 87.38 43.81 30.76 93.65 39.37 119.67 41.75 22.05 41.91 61.05 78.92 117.77 120.92 93.48 69.23 128.25 135.12 128.78 136.15z" opacity=".3"/><path d="M479.8 936.72l-.59.14s-.06-.08-.1-.12c.23 0 .46-.01.69-.02zM665.33 893.59h-.03s.01.01.02-.01h.01z"/><path d="M708.1 563.43v87H546.43v-84c0-14.86-1.37-31.79-6-47.67-7.31-25.07-21.67-46.66-72-46.66 0 0-.79-.04-2.22-.02-28.22-.48-45.71-10.2-55.97-24.46-9.48-13.19-15.92-43.69-15.92-75.36v-56.81c21.81-5.58 46.4-8.69 74.11-8.69 20.37 0 39.03 1.73 56.13 4.93 111.05 20.71 156.13 102.96 173.48 172.19 7.92 31.59 10.06 60.47 10.06 79.55z" opacity=".3"/><path d="M418.77 636.51c-26.02-2.38-75.86-10.99-119.67-41.75-45.01-31.6-61.31-68.88-66.92-87.38 2.63-15.04 6.39-30.87 11.7-46.78 13.31 67.31 53.45 153.89 173.38 172.98.49.98 1 1.96 1.51 2.93z" opacity=".4"/><path d="M936.86 468.43c0 188.38-111.2 350.79-271.54 425.15-.53-1.03-35.3-66.92-128.78-136.15-56.72-42-95.72-79.01-117.77-120.92-.51-.97-1.02-1.95-1.51-2.93 15.66 2.51 32.67 3.85 51.17 3.85 22.75 0 43.39-1.97 62.11-5.57 5.46-1.04 10.75-2.23 15.89-3.54v22.11H708.1v-87c0-19.08-2.14-47.96-10.06-79.55 15.16-45.74 15.72-86.84 15.72-98.45 0-29.67 5.33-80-33.67-153.67-39-73.66-101-123.33-151-162.33S454.42.21 454.42.21c4.65-.14 9.32-.21 14.01-.21 258.7 0 468.43 209.72 468.43 468.43z"/><path d="M546.43 566.43v61.89c-5.14 1.31-10.43 2.5-15.89 3.54v-79.1c0-80-62.11-80.66-62.11-80.66 50.33 0 64.69 21.59 72 46.66 4.63 15.88 6 32.81 6 47.67z" opacity=".5"/></svg>